{
    "accessors": [
        {
            "bufferView": 2,
            "componentType": 5126,
            "count": 136,
            "max": [1.776595950126648, -0.3916400074958801, 16.984878540039063],
            "min": [-1.3194069862365723, -2.0478320121765137, 16.56711769104004],
            "type": "VEC3"
        },
        {
            "bufferView": 2,
            "byteOffset": 1632,
            "componentType": 5126,
            "count": 136,
            "max": [0.9792780876159668, 0.9938272833824158, 0.9999216794967651],
            "min": [-0.9804660081863403, -0.9960411190986633, -0.9995473027229309],
            "type": "VEC3"
        },
        {
            "bufferView": 1,
            "componentType": 5126,
            "count": 136,
            "max": [1.1158239841461182, 0.989782989025116],
            "min": [0.09613200277090073, 0.8793269991874695],
            "type": "VEC2"
        },
        {
            "bufferView": 0,
            "componentType": 5125,
            "count": 360,
            "type": "SCALAR"
        },
        {
            "bufferView": 2,
            "byteOffset": 3264,
            "componentType": 5126,
            "count": 2583,
            "max": [8.166838645935059, 8.062213897705078, 18.90615463256836],
            "min": [-7.167121887207031, -7.271745204925537, 0.6693919897079468],
            "type": "VEC3"
        },
        {
            "bufferView": 2,
            "byteOffset": 34260,
            "componentType": 5126,
            "count": 2583,
            "max": [0.9973995089530945, 0.9976652264595032, 1.0],
            "min": [-0.9992572665214539, -0.9998618960380554, -1.0],
            "type": "VEC3"
        },
        {
            "bufferView": 1,
            "byteOffset": 1088,
            "componentType": 5126,
            "count": 2583,
            "max": [1.9897769689559937, 0.9895640015602112],
            "min": [0.01052900031208992, 0.020868999883532524],
            "type": "VEC2"
        },
        {
            "bufferView": 0,
            "byteOffset": 1440,
            "componentType": 5125,
            "count": 12138,
            "type": "SCALAR"
        },
        {
            "bufferView": 2,
            "byteOffset": 65256,
            "componentType": 5126,
            "count": 2576,
            "max": [2.0071520805358887, 4.9884772300720215, 14.578686714172363],
            "min": [-3.329602003097534, -3.079195976257324, 6.80224084854126],
            "type": "VEC3"
        },
        {
            "bufferView": 2,
            "byteOffset": 96168,
            "componentType": 5126,
            "count": 2576,
            "max": [0.9999534487724304, 0.9987612366676331, 0.9966534972190857],
            "min": [-0.9992569088935852, -0.9997190237045288, -0.9997674822807312],
            "type": "VEC3"
        },
        {
            "bufferView": 1,
            "byteOffset": 21752,
            "componentType": 5126,
            "count": 2576,
            "max": [1.9843480587005615, 0.9879639744758606],
            "min": [0.42225000262260437, 0.4423229992389679],
            "type": "VEC2"
        },
        {
            "bufferView": 0,
            "byteOffset": 49992,
            "componentType": 5125,
            "count": 10800,
            "type": "SCALAR"
        },
        {
            "bufferView": 2,
            "byteOffset": 127080,
            "componentType": 5126,
            "count": 2832,
            "max": [2.362993001937866, 2.4736061096191406, 17.6822509765625],
            "min": [-2.6254498958587646, -2.7057459354400635, 9.501238822937012],
            "type": "VEC3"
        },
        {
            "bufferView": 2,
            "byteOffset": 161064,
            "componentType": 5126,
            "count": 2832,
            "max": [0.9999151229858398, 0.9994597434997559, 0.9967247843742371],
            "min": [-0.999993622303009, -0.9992063641548157, -0.9985442161560059],
            "type": "VEC3"
        },
        {
            "bufferView": 1,
            "byteOffset": 42360,
            "componentType": 5126,
            "count": 2832,
            "max": [1.9923789501190186, 0.9183470010757446],
            "min": [0.3517270088195801, 0.007747000083327293],
            "type": "VEC2"
        },
        {
            "bufferView": 0,
            "byteOffset": 93192,
            "componentType": 5125,
            "count": 14280,
            "type": "SCALAR"
        },
        {
            "bufferView": 2,
            "byteOffset": 195048,
            "componentType": 5126,
            "count": 1656,
            "max": [2.4292469024658203, 3.1345760822296143, 14.383161544799805],
            "min": [-2.8946430683135986, -1.0635050535202026, 7.7766032218933105],
            "type": "VEC3"
        },
        {
            "bufferView": 2,
            "byteOffset": 214920,
            "componentType": 5126,
            "count": 1656,
            "max": [0.9909848570823669, 0.9998117685317993, 0.9973395466804504],
            "min": [-0.9880360960960388, -0.9998030066490173, -0.9929337501525879],
            "type": "VEC3"
        },
        {
            "bufferView": 1,
            "byteOffset": 65016,
            "componentType": 5126,
            "count": 1656,
            "max": [1.5713820457458496, 0.9784290194511414],
            "min": [0.008963000029325485, 0.4449869990348816],
            "type": "VEC2"
        },
        {
            "bufferView": 0,
            "byteOffset": 150312,
            "componentType": 5125,
            "count": 8688,
            "type": "SCALAR"
        },
        {
            "bufferView": 2,
            "byteOffset": 234792,
            "componentType": 5126,
            "count": 2530,
            "max": [3.8570048809051514, 2.113352060317993, 14.437118530273438],
            "min": [-2.9706599712371826, -1.5907180309295654, 1.8686829805374146],
            "type": "VEC3"
        },
        {
            "bufferView": 2,
            "byteOffset": 265152,
            "componentType": 5126,
            "count": 2530,
            "max": [0.9985121488571167, 0.9999062418937683, 0.9995323419570923],
            "min": [-0.9992112517356873, -0.9995090961456299, -0.999451220035553],
            "type": "VEC3"
        },
        {
            "bufferView": 1,
            "byteOffset": 78264,
            "componentType": 5126,
            "count": 2530,
            "max": [1.6213350296020508, 0.9898470044136047],
            "min": [0.004982999991625547, 0.004430000204592943],
            "type": "VEC2"
        },
        {
            "bufferView": 0,
            "byteOffset": 185064,
            "componentType": 5125,
            "count": 12840,
            "type": "SCALAR"
        },
        {
            "bufferView": 2,
            "byteOffset": 295512,
            "componentType": 5126,
            "count": 2313,
            "max": [2.611496925354004, 1.412572979927063, 17.7127628326416],
            "min": [-1.66498601436615, -2.1463680267333984, 14.000962257385254],
            "type": "VEC3"
        },
        {
            "bufferView": 2,
            "byteOffset": 323268,
            "componentType": 5126,
            "count": 2313,
            "max": [0.9998922348022461, 0.9999906420707703, 0.9998001456260681],
            "min": [-0.9998575448989868, -0.9994575381278992, -0.9998802542686462],
            "type": "VEC3"
        },
        {
            "bufferView": 1,
            "byteOffset": 98504,
            "componentType": 5126,
            "count": 2313,
            "max": [1.5247650146484375, 0.9937019944190979],
            "min": [0.3702870011329651, 0.013369999825954437],
            "type": "VEC2"
        },
        {
            "bufferView": 0,
            "byteOffset": 236424,
            "componentType": 5125,
            "count": 11544,
            "type": "SCALAR"
        },
        {
            "bufferView": 2,
            "byteOffset": 351024,
            "componentType": 5126,
            "count": 2246,
            "max": [2.2513349056243896, 3.4790821075439453, 19.501127243041992],
            "min": [-3.768484115600586, -2.7444019317626953, 13.466506958007813],
            "type": "VEC3"
        },
        {
            "bufferView": 2,
            "byteOffset": 377976,
            "componentType": 5126,
            "count": 2246,
            "max": [0.9998722672462463, 0.9999749064445496, 0.9999861121177673],
            "min": [-0.9943376183509827, -0.9992272257804871, -0.9999768733978271],
            "type": "VEC3"
        },
        {
            "bufferView": 1,
            "byteOffset": 117008,
            "componentType": 5126,
            "count": 2246,
            "max": [1.9884289503097534, 0.971347987651825],
            "min": [0.46438801288604736, 0.025169000029563904],
            "type": "VEC2"
        },
        {
            "bufferView": 0,
            "byteOffset": 282600,
            "componentType": 5125,
            "count": 9474,
            "type": "SCALAR"
        },
        {
            "bufferView": 2,
            "byteOffset": 404928,
            "componentType": 5126,
            "count": 2898,
            "max": [2.38543701171875, 2.7700109481811523, 20.975740432739258],
            "min": [-3.0472710132598877, -2.771296977996826, 14.34091854095459],
            "type": "VEC3"
        },
        {
            "bufferView": 2,
            "byteOffset": 439704,
            "componentType": 5126,
            "count": 2898,
            "max": [0.9998133778572083, 0.9994636178016663, 0.9998603463172913],
            "min": [-0.9998680949211121, -0.9998096227645874, -0.9980039000511169],
            "type": "VEC3"
        },
        {
            "bufferView": 1,
            "byteOffset": 134976,
            "componentType": 5126,
            "count": 2898,
            "max": [1.9809600114822388, 0.9843800067901611],
            "min": [0.025678999722003937, 0.013709000311791897],
            "type": "VEC2"
        },
        {
            "bufferView": 0,
            "byteOffset": 320496,
            "componentType": 5125,
            "count": 13392,
            "type": "SCALAR"
        },
        {
            "bufferView": 2,
            "byteOffset": 474480,
            "componentType": 5126,
            "count": 1536,
            "max": [8.328624725341797, 8.442973136901855, 19.475557327270508],
            "min": [-9.056208610534668, -6.456299781799316, 5.558505058288574],
            "type": "VEC3"
        },
        {
            "bufferView": 2,
            "byteOffset": 492912,
            "componentType": 5126,
            "count": 1536,
            "max": [0.9997613430023193, 0.999201774597168, 0.9993182420730591],
            "min": [-0.9981353282928467, -0.9996309876441956, -0.9997724890708923],
            "type": "VEC3"
        },
        {
            "bufferView": 1,
            "byteOffset": 158160,
            "componentType": 5126,
            "count": 1536,
            "max": [1.8485809564590454, 0.971347987651825],
            "min": [0.007178000174462795, 0.007596000097692013],
            "type": "VEC2"
        },
        {
            "bufferView": 0,
            "byteOffset": 374064,
            "componentType": 5125,
            "count": 7776,
            "type": "SCALAR"
        }
    ],
    "asset": {
        "extras": {
            "author": "halloween (https://sketchfab.com/yellow09)",
            "license": "CC-BY-4.0 (http://creativecommons.org/licenses/by/4.0/)",
            "source": "https://sketchfab.com/3d-models/madoka-machida-4a23132e4cf0482bbe55131745bee27c",
            "title": "Madoka Machida"
        },
        "generator": "Sketchfab-12.68.0",
        "version": "2.0"
    },
    "bufferViews": [
        {
            "buffer": 0,
            "byteLength": 405168,
            "name": "floatBufferViews",
            "target": 34963
        },
        {
            "buffer": 0,
            "byteLength": 170448,
            "byteOffset": 405168,
            "byteStride": 8,
            "name": "floatBufferViews",
            "target": 34962
        },
        {
            "buffer": 0,
            "byteLength": 511344,
            "byteOffset": 575616,
            "byteStride": 12,
            "name": "floatBufferViews",
            "target": 34962
        }
    ],
    "buffers": [
        {
            "byteLength": 1086960,
            "uri": "scene.bin"
        }
    ],
    "extensionsUsed": ["KHR_materials_unlit"],
    "images": [
        {
            "uri": "textures/lambert4SG_baseColor.png"
        },
        {
            "uri": "textures/lambert5SG_baseColor.png"
        },
        {
            "uri": "textures/lambert6SG_baseColor.png"
        }
    ],
    "materials": [
        {
            "doubleSided": true,
            "extensions": {
                "KHR_materials_unlit": {}
            },
            "name": "lambert4SG",
            "pbrMetallicRoughness": {
                "baseColorTexture": {
                    "index": 0
                },
                "metallicFactor": 0.0
            }
        },
        {
            "doubleSided": true,
            "extensions": {
                "KHR_materials_unlit": {}
            },
            "name": "lambert5SG",
            "pbrMetallicRoughness": {
                "baseColorTexture": {
                    "index": 1
                },
                "metallicFactor": 0.0
            }
        },
        {
            "extensions": {
                "KHR_materials_unlit": {}
            },
            "name": "lambert6SG",
            "pbrMetallicRoughness": {
                "baseColorTexture": {
                    "index": 2
                },
                "metallicFactor": 0.0
            }
        }
    ],
    "meshes": [
        {
            "name": "Object_0",
            "primitives": [
                {
                    "attributes": {
                        "NORMAL": 1,
                        "POSITION": 0,
                        "TEXCOORD_0": 2
                    },
                    "indices": 3,
                    "material": 0,
                    "mode": 4
                }
            ]
        },
        {
            "name": "Object_1",
            "primitives": [
                {
                    "attributes": {
                        "NORMAL": 5,
                        "POSITION": 4,
                        "TEXCOORD_0": 6
                    },
                    "indices": 7,
                    "material": 0,
                    "mode": 4
                }
            ]
        },
        {
            "name": "Object_2",
            "primitives": [
                {
                    "attributes": {
                        "NORMAL": 9,
                        "POSITION": 8,
                        "TEXCOORD_0": 10
                    },
                    "indices": 11,
                    "material": 1,
                    "mode": 4
                }
            ]
        },
        {
            "name": "Object_3",
            "primitives": [
                {
                    "attributes": {
                        "NORMAL": 13,
                        "POSITION": 12,
                        "TEXCOORD_0": 14
                    },
                    "indices": 15,
                    "material": 1,
                    "mode": 4
                }
            ]
        },
        {
            "name": "Object_4",
            "primitives": [
                {
                    "attributes": {
                        "NORMAL": 17,
                        "POSITION": 16,
                        "TEXCOORD_0": 18
                    },
                    "indices": 19,
                    "material": 1,
                    "mode": 4
                }
            ]
        },
        {
            "name": "Object_5",
            "primitives": [
                {
                    "attributes": {
                        "NORMAL": 21,
                        "POSITION": 20,
                        "TEXCOORD_0": 22
                    },
                    "indices": 23,
                    "material": 1,
                    "mode": 4
                }
            ]
        },
        {
            "name": "Object_6",
            "primitives": [
                {
                    "attributes": {
                        "NORMAL": 25,
                        "POSITION": 24,
                        "TEXCOORD_0": 26
                    },
                    "indices": 27,
                    "material": 1,
                    "mode": 4
                }
            ]
        },
        {
            "name": "Object_7",
            "primitives": [
                {
                    "attributes": {
                        "NORMAL": 29,
                        "POSITION": 28,
                        "TEXCOORD_0": 30
                    },
                    "indices": 31,
                    "material": 2,
                    "mode": 4
                }
            ]
        },
        {
            "name": "Object_8",
            "primitives": [
                {
                    "attributes": {
                        "NORMAL": 33,
                        "POSITION": 32,
                        "TEXCOORD_0": 34
                    },
                    "indices": 35,
                    "material": 2,
                    "mode": 4
                }
            ]
        },
        {
            "name": "Object_9",
            "primitives": [
                {
                    "attributes": {
                        "NORMAL": 37,
                        "POSITION": 36,
                        "TEXCOORD_0": 38
                    },
                    "indices": 39,
                    "material": 2,
                    "mode": 4
                }
            ]
        }
    ],
    "nodes": [
        {
            "children": [1],
            "matrix": [
                1.0, 0.0, 0.0, 0.0, 0.0, 2.220446049250313e-16, -1.0, 0.0, 0.0, 1.0, 2.220446049250313e-16, 0.0, 0.0,
                0.0, 0.0, 1.0
            ],
            "name": "Sketchfab_model"
        },
        {
            "children": [2, 3, 4, 5, 6, 7, 8, 9, 10, 11],
            "name": "machida_madoka_all.obj.cleaner"
        },
        {
            "mesh": 0,
            "name": "Object_2"
        },
        {
            "mesh": 1,
            "name": "Object_3"
        },
        {
            "mesh": 2,
            "name": "Object_4"
        },
        {
            "mesh": 3,
            "name": "Object_5"
        },
        {
            "mesh": 4,
            "name": "Object_6"
        },
        {
            "mesh": 5,
            "name": "Object_7"
        },
        {
            "mesh": 6,
            "name": "Object_8"
        },
        {
            "mesh": 7,
            "name": "Object_9"
        },
        {
            "mesh": 8,
            "name": "Object_10"
        },
        {
            "mesh": 9,
            "name": "Object_11"
        }
    ],
    "samplers": [
        {
            "magFilter": 9729,
            "minFilter": 9987,
            "wrapS": 10497,
            "wrapT": 10497
        }
    ],
    "scene": 0,
    "scenes": [
        {
            "name": "Sketchfab_Scene",
            "nodes": [0]
        }
    ],
    "textures": [
        {
            "sampler": 0,
            "source": 0
        },
        {
            "sampler": 0,
            "source": 1
        },
        {
            "sampler": 0,
            "source": 2
        }
    ]
}
